<svg width="25" height="25" viewBox="0 0 25 25" fill="none" xmlns="http://www.w3.org/2000/svg">
<g id="Communication / Bell">
<path id="Vector" d="M15.625 17.7083V18.75C15.625 20.4759 14.2259 21.875 12.5 21.875C10.7741 21.875 9.37499 20.4759 9.37499 18.75V17.7083M15.625 17.7083H9.37499M15.625 17.7083H19.3651C19.7636 17.7083 19.9637 17.7083 20.1251 17.6539C20.4333 17.55 20.6744 17.308 20.7784 16.9998C20.833 16.8378 20.833 16.637 20.833 16.2354C20.833 16.0596 20.8328 15.9717 20.8191 15.888C20.7931 15.7296 20.7317 15.5795 20.6381 15.4492C20.5886 15.3803 20.5258 15.3175 20.4019 15.1936L19.9961 14.7878C19.8652 14.6569 19.7917 14.4793 19.7917 14.2942V10.4167C19.7917 6.38958 16.5271 3.12499 12.5 3.125C8.47292 3.12501 5.20832 6.3896 5.20832 10.4167V14.2942C5.20832 14.4793 5.13462 14.6569 5.0037 14.7878L4.59797 15.1935C4.4737 15.3178 4.41149 15.3802 4.36197 15.4492C4.26838 15.5796 4.20639 15.7296 4.18041 15.888C4.16666 15.9717 4.16666 16.0596 4.16666 16.2354C4.16666 16.637 4.16666 16.8377 4.22129 16.9997C4.32525 17.3079 4.56749 17.55 4.87568 17.6539C5.03703 17.7083 5.23646 17.7083 5.63494 17.7083H9.37499" stroke="white" stroke-linecap="round" stroke-linejoin="round"/>
</g>
</svg>
