<svg width="16" height="12" viewBox="0 0 16 12" fill="none" xmlns="http://www.w3.org/2000/svg">
<path d="M10.2857 6.00003C10.2857 6.56836 10.0599 7.1134 9.65809 7.51526C9.25622 7.91713 8.71118 8.14289 8.14286 8.14289C7.57454 8.14289 7.02949 7.91713 6.62763 7.51526C6.22576 7.1134 6 6.56836 6 6.00003C6 5.43171 6.22576 4.88667 6.62763 4.48481C7.02949 4.08294 7.57454 3.85718 8.14286 3.85718C8.71118 3.85718 9.25622 4.08294 9.65809 4.48481C10.0599 4.88667 10.2857 5.43171 10.2857 6.00003Z" stroke="white" stroke-linecap="round" stroke-linejoin="round"/>
<path d="M1 6C2.14286 3.07357 4.81143 1 8.14286 1C11.4743 1 14.1429 3.07357 15.2857 6C14.1429 8.92643 11.4743 11 8.14286 11C4.81143 11 2.14286 8.92643 1 6Z" stroke="white" stroke-linecap="round" stroke-linejoin="round"/>
</svg>
