<svg width="15" height="15" viewBox="0 0 15 15" fill="none" xmlns="http://www.w3.org/2000/svg">
<g id="Interface / Star">
<path id="Vector" d="M1.45935 6.46042C1.26357 6.27937 1.36992 5.95206 1.63473 5.92066L5.38696 5.47561C5.49489 5.46281 5.58863 5.39503 5.63416 5.29635L7.2168 1.86523C7.32849 1.62308 7.67273 1.62303 7.78442 1.86518L9.36707 5.29627C9.41259 5.39496 9.50572 5.46292 9.61365 5.47572L13.3661 5.92066C13.6309 5.95206 13.7369 6.27947 13.5412 6.46052L10.7674 9.02613C10.6876 9.09992 10.652 9.20975 10.6732 9.31635L11.4094 13.0224C11.4614 13.284 11.183 13.4866 10.9503 13.3564L7.65322 11.5103C7.55838 11.4572 7.44317 11.4575 7.34833 11.5106L4.0509 13.3559C3.81821 13.4861 3.53934 13.2839 3.59131 13.0224L4.32759 9.31658C4.34877 9.20999 4.31334 9.0999 4.23354 9.02611L1.45935 6.46042Z" stroke="white" stroke-linecap="round" stroke-linejoin="round"/>
</g>
</svg>
